<svg xmlns="http://www.w3.org/2000/svg" font-family="-apple-system, system-ui, sans-serif" viewBox="0 0 780 220"><defs><marker id="arrowhead" markerHeight="7" markerWidth="10" orient="auto" refX="10" refY="3.5"><path fill="#666" d="m0 0 10 3.5L0 7z"/></marker><style>.box{fill:#1a1a1a;stroke:#6b7280;stroke-width:2}.label,.sub{fill:#e0e0e0;font-size:13px;text-anchor:middle}.sub{fill:#888;font-size:10px}.arrow{stroke:#666;stroke-width:2;fill:none;marker-end:url(#arrowhead)}.ios{stroke:#5b9bd5}</style></defs><path fill="#111" d="M0 0h780v220H0z"/><!-- Markdown --><rect width="120" height="50" x="20" y="85" class="box" rx="8"/><text x="80" y="107" class="label">Markdown</text><text x="80" y="123" class="sub">*.md notes</text><!-- GitHub Repo --><path d="M142 110h36" class="arrow"/><rect width="130" height="50" x="180" y="85" class="box" rx="8"/><text x="245" y="107" class="label">GitHub Repo</text><text x="245" y="123" class="sub">nulljosh/notes</text><!-- GitHub Pages --><path d="M312 110h36" class="arrow"/><rect width="130" height="50" x="350" y="85" class="box" rx="8"/><text x="415" y="107" class="label">GitHub Pages</text><text x="415" y="123" class="sub">static deploy</text><!-- Cloudflare --><path d="M482 110h36" class="arrow"/><rect width="140" height="50" x="520" y="85" class="box" rx="8"/><text x="590" y="107" class="label">Cloudflare DNS</text><text x="590" y="123" class="sub">notes.heyitsmejosh.com</text><!-- iOS app --><path d="M590 135v30" class="arrow"/><rect width="130" height="40" x="525" y="167" class="box ios" rx="8"/><text x="590" y="192" class="label">iOS App</text><!-- index.html note --><rect width="130" height="35" x="180" y="30" class="box" rx="8" style="stroke:#f59e0b"/><text x="245" y="52" class="label">index.html</text><path d="M245 67v16" class="arrow"/></svg>
